<svg width="143" height="37" viewBox="0 0 143 37" fill="none" xmlns="http://www.w3.org/2000/svg">
<path d="M6.1564 7.4072C6.24869 6.73165 6.46431 6.07874 6.79256 5.4809C7.01066 5.08579 7.32025 4.74852 7.6955 4.49726C7.97444 4.31502 8.30816 4.23533 8.63948 4.27184C8.91112 4.29765 9.16862 4.40479 9.37825 4.57923C9.58058 4.73394 9.71338 4.96233 9.74763 5.2145C9.76922 5.35446 9.75823 5.49752 9.71553 5.63256C9.67282 5.7676 9.59954 5.89101 9.50138 5.99321C9.42131 6.10292 9.32022 6.19565 9.20396 6.266C9.08771 6.33636 8.95861 6.38295 8.82417 6.40306C8.61164 6.41784 8.39903 6.37538 8.20853 6.28011C8.02806 6.18886 7.8621 6.07147 7.71602 5.93174C7.65461 5.87823 7.58286 5.83789 7.5052 5.81321C7.42754 5.78854 7.34563 5.78006 7.26455 5.78829C7.14142 5.78829 7.01829 5.93174 6.89517 6.17765C6.73433 6.60178 6.61743 7.04124 6.5463 7.48917C6.33999 8.35049 6.20952 9.22819 6.1564 10.1122C6.14802 10.7447 6.08624 11.3754 5.97171 11.9975C5.91914 12.4336 5.70722 12.835 5.37659 13.1246C4.92262 13.4249 4.37989 13.5622 3.83749 13.514C4.58642 13.4993 5.33336 13.596 6.05379 13.8009C6.6061 13.9739 7.09737 14.301 7.46976 14.7435C7.85953 15.2213 8.11455 15.7943 8.20853 16.4034C8.35413 17.0769 8.42977 17.7637 8.43427 18.4527C8.43427 19.3953 8.43427 20.215 8.43427 20.9323C8.39621 21.526 8.39621 22.1215 8.43427 22.7151C8.48401 23.0981 8.60958 23.4673 8.80365 23.8012C8.9021 23.9278 9.03061 24.0277 9.17752 24.0922C9.32444 24.1566 9.48512 24.1834 9.64502 24.1701V24.6004C8.93889 24.6189 8.23761 24.4788 7.59289 24.1906C7.10601 23.9226 6.71772 23.5061 6.48474 23.002C6.26541 22.3835 6.15434 21.7319 6.1564 21.0757C6.1564 20.338 6.1564 19.4773 6.1564 18.4527C6.19034 17.5609 6.08652 16.6693 5.84858 15.8091C5.69475 15.3065 5.41997 14.8492 5.04825 14.4771C4.77386 14.2297 4.43004 14.0723 4.06322 14.0263H3.16028V24.2726H3.69384V24.6004H0V24.2521H0.718246V4.62021H0V4.27184H3.69384V4.62021H3.0782V13.2681C3.67241 13.3143 4.2693 13.2231 4.82251 13.0017C4.99421 12.8969 5.14159 12.7569 5.25482 12.5908C5.36805 12.4247 5.44454 12.2364 5.47919 12.0385C5.60484 11.4522 5.67357 10.8552 5.68441 10.2557C5.7662 9.29522 5.92402 8.34276 6.1564 7.4072Z" fill="#474A51"/>
<path d="M19.3105 24.2136C19.5875 24.2191 19.8571 24.1245 20.0698 23.9472C20.3053 23.7278 20.4938 23.4629 20.6239 23.1685C20.7675 22.8407 20.9112 22.4513 21.0548 22.021C21.1985 21.5907 21.3421 21.0989 21.4858 20.5866L16.9916 4.62375H16.417V4.27539H19.9672V4.62375H19.3105L22.5734 16.4063L25.4464 4.58276H24.8923V4.27539H26.3904V4.62375H25.8773L21.7731 21.0169C21.5884 21.5907 21.4242 22.103 21.26 22.5538C21.1196 22.9395 20.9409 23.3102 20.7265 23.6603C20.58 23.9423 20.3546 24.1757 20.0777 24.3321C19.8008 24.4885 19.4844 24.5613 19.1668 24.5415C18.7515 24.554 18.3405 24.455 17.9766 24.2546C17.6958 24.0741 17.4633 23.8279 17.2994 23.5374C17.1534 23.2738 17.0758 22.9779 17.0737 22.6767C17.0513 22.4157 17.101 22.1534 17.2173 21.9186C17.2619 21.8158 17.3267 21.723 17.4077 21.6455C17.4888 21.5681 17.5845 21.5077 17.6893 21.4677C17.8153 21.4343 17.9472 21.4298 18.0752 21.4547C18.2032 21.4795 18.3238 21.533 18.4281 21.6112C18.7564 21.8161 18.9411 22.0005 18.9822 22.2054C19.023 22.2956 19.0441 22.3934 19.0441 22.4923C19.0441 22.5912 19.023 22.689 18.9822 22.7792C18.9043 22.9621 18.7929 23.1289 18.6538 23.271C18.5463 23.4062 18.4502 23.5502 18.3665 23.7013C18.3276 23.743 18.3059 23.798 18.3059 23.855C18.3059 23.912 18.3276 23.967 18.3665 24.0087C18.6505 24.1778 18.9819 24.2497 19.3105 24.2136Z" fill="#474A51"/>
<path d="M36.0752 4.27539C37.0192 4.27539 37.799 4.27539 38.4351 4.27539C39.0149 4.31733 39.5606 4.56437 39.9742 4.97211C40.4262 5.50706 40.7116 6.1624 40.7951 6.85733C40.989 8.10437 41.0714 9.36617 41.0414 10.6278C41.0414 12.3901 41.0414 13.763 41.0414 14.7261C41.0284 15.4675 40.8679 16.1988 40.5694 16.8777C40.4564 17.1014 40.2911 17.2945 40.0875 17.4408C39.8839 17.587 39.6479 17.6821 39.3996 17.7179C38.6734 17.8304 37.9386 17.8784 37.2039 17.8613C37.0668 17.8483 36.9287 17.8675 36.8004 17.9173C36.6721 17.9671 36.5573 18.0462 36.4651 18.1482C36.2918 18.4078 36.2122 18.7186 36.2394 19.0294V24.2547H36.814V24.6031H33.1201V24.2547H33.8589V4.62375H33.1201V4.27539H36.0752ZM36.0752 4.62375V18.0458C36.0758 17.9641 36.0967 17.8839 36.1361 17.8123C36.1756 17.7408 36.2322 17.6802 36.3009 17.6359C36.5564 17.4912 36.8496 17.4269 37.1423 17.4515C37.445 17.4625 37.7463 17.4066 38.0247 17.2876C38.1648 17.1823 38.2824 17.0501 38.3705 16.8988C38.4586 16.7475 38.5155 16.5801 38.5378 16.4064C38.6706 15.7314 38.7393 15.0452 38.743 14.3573C38.743 13.4556 38.743 12.3081 38.743 10.6073C38.7696 9.41523 38.701 8.22293 38.5378 7.04176C38.4786 6.42208 38.2899 5.8217 37.9837 5.27948C37.8928 5.117 37.7661 4.97725 37.6133 4.87077C37.4604 4.76428 37.2853 4.69383 37.1013 4.66473C36.7603 4.6311 36.4177 4.61742 36.0752 4.62375Z" fill="#474A51"/>
<path d="M48.7373 20.2357C48.7373 17.92 48.7373 16.0142 48.7373 14.5183C48.7373 13.0223 48.7373 11.8543 48.7373 10.9731V8.63698C48.7373 8.17248 48.7373 7.68066 48.7373 7.16152C48.7977 6.65721 48.9733 6.17348 49.2503 5.74755C49.502 5.29263 49.8893 4.92732 50.3585 4.70244C51.0362 4.3798 51.784 4.23185 52.5337 4.2721C53.2837 4.23633 54.0326 4.36213 54.7295 4.64096C55.1925 4.83409 55.586 5.16274 55.8582 5.58361C56.1133 6.00488 56.2547 6.48499 56.2686 6.97709C56.3004 7.52993 56.3004 8.08414 56.2686 8.63698C56.2686 10.0919 56.2686 11.383 56.2686 12.51V15.3995C56.2686 16.2397 56.2686 16.9159 56.2686 17.4487C56.2686 17.9815 56.2686 18.4528 56.2686 18.8012C56.2686 19.6414 56.2686 20.1127 56.2686 20.1947C56.2686 20.9324 56.2686 21.5677 56.2686 22.121C56.2514 22.5997 56.11 23.0657 55.8582 23.4735C55.5668 23.8518 55.1654 24.1309 54.709 24.2727C53.9837 24.4877 53.2284 24.5846 52.4722 24.5596C51.7362 24.5853 51.001 24.4883 50.2969 24.2727C49.8439 24.1353 49.4524 23.8457 49.1888 23.453C48.937 23.0452 48.7956 22.5792 48.7783 22.1005C48.751 21.595 48.7373 20.9734 48.7373 20.2357ZM50.9741 20.2357C50.9741 20.8914 50.9741 21.4447 50.9741 21.9365C50.9875 22.3576 51.0425 22.7763 51.1383 23.1866C51.2042 23.4821 51.3538 23.7524 51.5692 23.9653C51.824 24.1698 52.1459 24.2721 52.4722 24.2522C52.6245 24.2626 52.7773 24.2425 52.9218 24.1933C53.0662 24.144 53.1994 24.0665 53.3136 23.9653C53.5427 23.7599 53.7007 23.4873 53.765 23.1866C53.8809 22.7802 53.9362 22.359 53.9292 21.9365C53.9292 21.4447 53.9292 20.8914 53.9292 20.2357V18.1864C53.9292 17.3667 53.9292 16.1372 53.9292 14.6822C53.9292 13.2273 53.9292 11.1166 53.9292 8.53451C53.9292 8.02903 53.9292 7.53722 53.9292 7.05906C53.9216 6.6308 53.8666 6.20469 53.765 5.78853C53.6962 5.48631 53.5554 5.20512 53.3546 4.96884C53.2519 4.85398 53.1251 4.76319 52.9832 4.70296C52.8413 4.64274 52.6878 4.61457 52.5337 4.62047C52.363 4.60829 52.1918 4.63731 52.0347 4.70507C51.8775 4.77284 51.739 4.87736 51.6308 5.00982C51.4228 5.30565 51.2763 5.64012 51.1999 5.99346C51.1111 6.4257 51.0562 6.8642 51.0357 7.30497C51.0357 7.7763 51.0357 8.22713 51.0357 8.63698V11.4239C51.0357 12.3666 51.0357 13.4732 51.0357 15.0306C51.0357 16.588 50.9536 18.2274 50.9741 20.2357Z" fill="#474A51"/>
<path d="M67.2286 4.27539C68.152 4.27539 68.9524 4.27539 69.5885 4.27539C70.1683 4.31733 70.714 4.56437 71.1276 4.97211C71.5796 5.50706 71.865 6.1624 71.9485 6.85733C72.1192 8.07228 72.1946 9.29867 72.1742 10.5253C72.1742 12.2876 72.1742 13.6606 72.0716 14.6237C72.0586 15.365 71.8982 16.0964 71.5996 16.7753C71.4794 16.9974 71.3095 17.1888 71.103 17.3345C70.8966 17.4802 70.6592 17.5764 70.4094 17.6154C69.6832 17.7286 68.9484 17.7766 68.2136 17.7589C68.0766 17.7458 67.9384 17.765 67.8102 17.8148C67.6819 17.8646 67.5671 17.9437 67.4749 18.0458C67.3111 18.3095 67.2323 18.617 67.2491 18.9269V24.1523H67.8442V24.6031H64.1504V24.2547H64.8686V4.62375H64.1504V4.27539H67.2286ZM67.2286 4.62375V18.0458C67.2293 17.9617 67.2525 17.8794 67.2958 17.8074C67.3391 17.7353 67.4009 17.6761 67.4749 17.6359C67.7283 17.486 68.0232 17.4214 68.3162 17.4515C68.612 17.4595 68.906 17.4036 69.1781 17.2876C69.337 17.1945 69.473 17.067 69.576 16.9145C69.6789 16.762 69.7464 16.5884 69.7732 16.4064C69.8958 15.7299 69.9644 15.0447 69.9784 14.3573C69.9784 13.4556 69.9784 12.3081 69.9784 10.6073C70.004 9.42206 69.9354 8.23666 69.7732 7.06225C69.6993 6.44287 69.5041 5.84407 69.1986 5.29997C69.1098 5.13992 68.9864 5.00168 68.8373 4.89532C68.6882 4.78897 68.5172 4.71719 68.3367 4.68522C67.969 4.64211 67.5989 4.62158 67.2286 4.62375Z" fill="#474A51"/>
<path d="M87.7284 4.27539V5.68931H87.359V4.62375H84.4655V24.2547H85.0401V24.6031H81.3463V24.2547H82.085V4.62375H79.3762V5.68931H79.0068V4.27539H87.7284Z" fill="#474A51"/>
<path d="M101.682 14.9515H99.6302H99.1377C98.9357 14.9728 98.7364 15.014 98.5425 15.0745C98.3658 15.1467 98.2 15.2433 98.05 15.3614C97.9854 15.4173 97.9336 15.4866 97.8982 15.5644C97.8627 15.6422 97.8445 15.7267 97.8448 15.8122V24.2137H98.4399V24.6031H94.7461V24.2547H95.4643V4.62375H94.7461V4.27539H98.4399V4.62375H97.8243V15.0745C97.8243 15.0745 97.8243 14.931 98.009 14.8696L98.5015 14.7056H99.1171C99.3287 14.6859 99.5417 14.6859 99.7533 14.7056H101.805V4.62375H100.964V4.27539H104.658V4.62375H104.042V24.2547H104.658V24.6031H100.964V24.2547H101.682V14.9515Z" fill="#474A51"/>
<path d="M112.334 24.6031V24.2547H113.052V4.62375H112.334V4.27539H116.028V4.62375H115.433V9.84911C115.416 10.159 115.495 10.4665 115.658 10.7302C115.751 10.8323 115.865 10.9114 115.994 10.9612C116.122 11.011 116.26 11.0302 116.397 11.0171C117.132 10.9994 117.867 11.0474 118.593 11.1606C118.843 11.1996 119.08 11.2958 119.287 11.4415C119.493 11.5872 119.663 11.7786 119.783 12.0007C120.082 12.6796 120.242 13.411 120.255 14.1523C120.255 15.1155 120.255 16.4884 120.255 18.2507C120.276 19.4773 120.2 20.7037 120.029 21.9187C119.946 22.6136 119.661 23.2689 119.209 23.8039C118.795 24.2116 118.249 24.4587 117.67 24.5006C117.033 24.5006 116.233 24.6031 115.31 24.6031H112.334ZM115.412 24.2547C115.768 24.2757 116.124 24.2757 116.479 24.2547C116.66 24.2227 116.831 24.151 116.98 24.0446C117.129 23.9383 117.252 23.8 117.341 23.64C117.643 23.0944 117.838 22.4963 117.916 21.8777C118.079 20.6965 118.148 19.5042 118.121 18.3121C118.121 16.7138 118.121 15.4638 118.121 14.5622C118.108 13.8747 118.04 13.1894 117.916 12.513C117.898 12.3433 117.845 12.1791 117.76 12.0309C117.675 11.8828 117.561 11.7538 117.423 11.6524C117.155 11.5235 116.858 11.467 116.561 11.4884C116.268 11.5185 115.973 11.4539 115.72 11.304C115.647 11.2622 115.587 11.2027 115.544 11.131C115.501 11.0593 115.477 10.9778 115.474 10.8942L115.412 24.2547ZM121.076 4.62375V4.27539H124.77V4.62375H124.154V24.2547H124.729V24.6031H121.076V24.2547H121.815V4.62375H121.076Z" fill="#474A51"/>
<path d="M139.115 8.92892C138.869 9.64614 138.643 10.3019 138.458 10.9781C138.274 11.6543 138.068 12.2486 137.822 13.0273L137.083 15.1994C136.468 17.0232 135.791 19.1134 135.031 21.347V24.1748H135.606V24.6052H131.912V24.2568H132.63V4.62564H131.912V4.27728H135.606V4.62564H134.99V20.3019C135.237 19.5847 135.462 18.9289 135.647 18.2527C135.832 17.5765 136.057 17.0027 136.304 16.2035C136.55 15.4043 136.796 14.6871 137.042 13.8879C137.638 12.0437 138.315 9.97401 139.095 7.7404V4.62564H138.356V4.27728H142.05V4.62564H141.454V24.2568H142.029V24.6052H138.335V24.2568H139.074L139.115 8.92892ZM137.063 2.61744C137.455 2.61255 137.843 2.54332 138.212 2.41252C138.417 2.41252 138.499 2.2076 138.499 2.10515C138.469 1.95875 138.398 1.82385 138.294 1.7158C138.178 1.56779 138.075 1.41011 137.986 1.24449C137.885 1.09391 137.842 0.912165 137.863 0.732193C137.863 0.568258 138.027 0.383832 138.356 0.178914C138.45 0.104871 138.56 0.0519285 138.677 0.0236506C138.793 -0.00462742 138.915 -0.0075843 139.033 0.014979C139.218 0.100361 139.369 0.24446 139.464 0.424816C139.563 0.657392 139.592 0.913897 139.546 1.16252C139.523 1.44687 139.416 1.71799 139.238 1.94121C139.035 2.21795 138.758 2.43121 138.438 2.55597C138.001 2.75443 137.522 2.84576 137.042 2.82236C136.382 2.88214 135.722 2.692 135.195 2.28957C134.853 2.00414 134.626 1.60321 134.559 1.16252C134.539 0.990854 134.559 0.81692 134.615 0.6537C134.672 0.49048 134.765 0.34219 134.888 0.219897C135.134 -0.0464964 135.442 -0.0464964 135.832 0.219897C136.222 0.486291 136.283 0.609242 136.304 0.773177C136.338 0.854198 136.356 0.941311 136.356 1.02932C136.356 1.11734 136.338 1.20445 136.304 1.28547C136.201 1.45208 136.084 1.60974 135.955 1.75678C135.843 1.85909 135.771 1.99662 135.75 2.14613C135.75 2.24859 135.852 2.37154 136.037 2.45351C136.375 2.56135 136.728 2.61664 137.083 2.61744H137.063Z" fill="#474A51"/>
<path d="M14.9605 33.5195H15.4119V35.0131L17.0331 33.5195H17.5667L15.966 35.0336L17.6898 36.8955H17.1152L15.6582 35.2791L15.4119 35.4837V36.8955H14.9605V35.4837L14.7142 35.2791L13.2777 36.8955H12.7031L14.3654 35.0336L12.7852 33.5195H13.3188L14.9194 35.0131L14.9605 33.5195Z" fill="#474A51"/>
<path d="M23.6614 33.5195V36.0157L26.1445 33.5195V36.8955H25.7135V34.4198L23.2715 36.8955V33.5195H23.6614Z" fill="#474A51"/>
<path d="M35.1114 36.8955H34.66L33.5313 34.4402L32.4027 36.8955H31.9307L33.4903 33.5195L35.1114 36.8955Z" fill="#474A51"/>
<path d="M42.4797 33.4373C42.7248 33.4276 42.9689 33.4743 43.193 33.5737C43.4172 33.6731 43.6155 33.8225 43.7725 34.0105C43.9285 34.1699 44.0507 34.359 44.1318 34.5666C44.2128 34.7741 44.2512 34.9958 44.2445 35.2184C44.2456 35.6821 44.0695 36.1287 43.752 36.4673C43.5859 36.6356 43.3878 36.7694 43.1694 36.8606C42.951 36.9519 42.7165 36.9989 42.4797 36.9989C42.2429 36.9989 42.0084 36.9519 41.79 36.8606C41.5716 36.7694 41.3735 36.6356 41.2074 36.4673C40.8899 36.1287 40.7138 35.6821 40.7149 35.2184C40.7125 34.7706 40.8813 34.3386 41.1869 34.0105C41.3468 33.826 41.5456 33.6789 41.7691 33.5798C41.9926 33.4807 42.2352 33.4321 42.4797 33.4373ZM42.4797 33.8672C42.3067 33.8611 42.1344 33.8928 41.9749 33.96C41.8154 34.0272 41.6725 34.1283 41.5562 34.2562C41.4284 34.3855 41.328 34.5391 41.261 34.7079C41.194 34.8768 41.1618 35.0574 41.1663 35.2389C41.1671 35.4738 41.2233 35.7053 41.3305 35.9145C41.4511 36.1166 41.6204 36.2855 41.823 36.4059C42.0218 36.5216 42.2497 36.5784 42.4797 36.5696C42.7163 36.579 42.9508 36.5223 43.1569 36.4059C43.3486 36.2788 43.5098 36.111 43.6289 35.9145C43.7517 35.7106 43.8156 35.4768 43.8136 35.2389C43.8118 34.8741 43.6726 34.5234 43.4237 34.2562C43.3018 34.1298 43.155 34.03 42.9925 33.9631C42.8301 33.8961 42.6554 33.8635 42.4797 33.8672Z" fill="#474A51"/>
<path d="M50.5852 33.5187V36.0182L53.0683 33.5187V36.8991H52.6373V34.4201L50.1953 36.8991V33.5187H50.5852ZM50.5852 32.1665H50.9956C51.0715 32.2692 51.1697 32.3532 51.2829 32.4124C51.4247 32.4455 51.5722 32.4455 51.7139 32.4124C51.8415 32.4472 51.9762 32.4472 52.1038 32.4124C52.2223 32.3614 52.3225 32.2757 52.3911 32.1665H52.8015C52.744 32.3595 52.6206 32.5262 52.4527 32.6377C52.2215 32.768 51.9587 32.8319 51.6934 32.8221C51.4343 32.8348 51.1772 32.7707 50.9546 32.6377C50.7582 32.5384 50.605 32.3708 50.5237 32.1665H50.5852Z" fill="#474A51"/>
<path d="M66.0361 33.5195H66.4671V34.9517L68.0472 33.5195H68.6423L66.9391 35.0745L68.786 36.8955H68.1703L66.6107 35.3405L66.4671 35.4633V36.8955H66.0361V33.5195Z" fill="#474A51"/>
<path d="M75.928 33.437C76.1759 33.4287 76.4225 33.4759 76.6498 33.5751C76.877 33.6743 77.0791 33.8229 77.2413 34.0102C77.5413 34.3403 77.7029 34.7726 77.6928 35.218C77.6939 35.6816 77.5177 36.1282 77.2003 36.4668C77.0388 36.6412 76.8416 36.779 76.6221 36.8709C76.4026 36.9627 76.1659 37.0064 75.928 36.9991C75.6902 37.0051 75.4539 36.9608 75.2346 36.869C75.0153 36.7773 74.818 36.6402 74.6556 36.4668C74.3382 36.1282 74.162 35.6816 74.1631 35.218C74.1607 34.7702 74.3295 34.3383 74.6351 34.0102C74.7951 33.8256 74.9939 33.6786 75.2173 33.5795C75.4408 33.4804 75.6835 33.4317 75.928 33.437ZM75.928 33.8669C75.7553 33.8635 75.5838 33.8964 75.4247 33.9634C75.2657 34.0304 75.1225 34.13 75.0045 34.2558C74.8766 34.3851 74.7762 34.5387 74.7092 34.7076C74.6422 34.8764 74.6101 35.057 74.6146 35.2385C74.6153 35.4734 74.6716 35.7049 74.7788 35.9141C74.8994 36.1162 75.0687 36.2851 75.2713 36.4054C75.4709 36.5191 75.6981 36.5758 75.928 36.5692C76.1646 36.5785 76.3991 36.5218 76.6052 36.4054C76.8019 36.2845 76.9644 36.1153 77.0772 35.9141C77.2 35.7102 77.2639 35.4764 77.2618 35.2385C77.2601 34.8737 77.1209 34.523 76.8719 34.2558C76.7501 34.1295 76.6033 34.0297 76.4408 33.9627C76.2783 33.8958 76.1037 33.8631 75.928 33.8669Z" fill="#474A51"/>
<path d="M87.277 33.5195H87.4002L88.5494 36.8955H88.0979L87.2565 34.4198L85.9637 36.8955L84.6503 34.4198L83.7269 36.8955H83.2754L84.4451 33.5195H84.5477L85.9226 36.1589L87.277 33.5195Z" fill="#474A51"/>
<path d="M94.3984 33.5195H97.2509V36.8955H96.82V33.9287H94.7678V36.8955H94.3984V33.5195Z" fill="#474A51"/>
<path d="M106.074 36.8955H105.623L104.474 34.4402L103.366 36.8955H102.894L104.433 33.5195L106.074 36.8955Z" fill="#474A51"/>
<path d="M114.694 35.79L115.063 35.9742C114.959 36.1917 114.813 36.3865 114.632 36.5472C114.478 36.6912 114.297 36.8026 114.099 36.8746C113.891 36.9605 113.667 37.0024 113.442 36.9974C113.198 37.0111 112.955 36.9683 112.731 36.8725C112.506 36.7766 112.307 36.6303 112.149 36.4449C111.837 36.1129 111.667 35.6721 111.677 35.217C111.671 34.8016 111.808 34.3968 112.067 34.0711C112.227 33.8671 112.433 33.7035 112.669 33.5933C112.904 33.4831 113.162 33.4295 113.421 33.4367C113.686 33.4303 113.949 33.4862 114.188 33.6C114.426 33.7138 114.635 33.8822 114.796 34.0915C115.052 34.4254 115.183 34.8381 115.166 35.258H112.129C112.12 35.6146 112.252 35.9604 112.498 36.2198C112.615 36.3393 112.756 36.4336 112.911 36.4969C113.067 36.5602 113.233 36.5913 113.401 36.5881C113.571 36.6175 113.744 36.6175 113.914 36.5881C114.062 36.5262 114.2 36.4435 114.324 36.3425C114.463 36.1694 114.587 35.9846 114.694 35.79ZM114.694 34.8691C114.647 34.6675 114.556 34.4787 114.427 34.3166C114.316 34.1702 114.167 34.057 113.996 33.9892C113.821 33.8913 113.622 33.8418 113.421 33.846C113.104 33.8494 112.799 33.9655 112.56 34.1734C112.37 34.3664 112.235 34.6067 112.17 34.8691H114.694Z" fill="#474A51"/>
<path d="M121.076 33.5195H121.507V34.9517L123.087 33.5195H123.682L121.979 35.0745L123.826 36.8955H123.128L121.569 35.3405L121.425 35.4633V36.8955H121.076V33.5195Z" fill="#474A51"/>
<path d="M132.67 34.2355L132.321 34.4403C132.178 34.2509 131.991 34.0983 131.777 33.9951C131.563 33.8918 131.327 33.8409 131.09 33.8466C130.9 33.8427 130.711 33.877 130.535 33.9473C130.359 34.0176 130.198 34.1226 130.064 34.256C129.931 34.3781 129.825 34.5271 129.754 34.693C129.684 34.8589 129.649 35.0379 129.653 35.2182C129.653 35.4622 129.717 35.702 129.838 35.9142C129.974 36.1216 130.16 36.2919 130.378 36.4098C130.597 36.5277 130.841 36.5896 131.09 36.5898C131.327 36.5938 131.562 36.5422 131.776 36.4391C131.99 36.336 132.177 36.1842 132.321 35.9961L132.67 36.2213C132.502 36.4636 132.276 36.6606 132.013 36.7945C131.716 36.927 131.395 36.9967 131.069 36.9992C130.575 37.0053 130.098 36.8221 129.735 36.4874C129.568 36.326 129.436 36.1317 129.347 35.9168C129.259 35.7018 129.216 35.4709 129.222 35.2387C129.218 34.9214 129.304 34.6093 129.468 34.3379C129.623 34.0566 129.859 33.8283 130.146 33.6828C130.44 33.5181 130.773 33.4334 131.11 33.4371C131.333 33.4412 131.554 33.4757 131.767 33.5395C131.952 33.5988 132.125 33.6887 132.28 33.8056C132.44 33.9181 132.574 34.065 132.67 34.2355Z" fill="#474A51"/>
</svg>
