<svg width="142" height="37" viewBox="0 0 142 37" fill="none" xmlns="http://www.w3.org/2000/svg">
<path d="M6.15427 7.41083C6.24653 6.73534 6.46208 6.08249 6.79021 5.4847C7.00823 5.08962 7.31772 4.75238 7.69284 4.50114C7.97168 4.31893 8.30529 4.23924 8.63649 4.27574C8.90804 4.30155 9.16545 4.40868 9.375 4.58311C9.57727 4.7378 9.71002 4.96617 9.74426 5.21832C9.76584 5.35828 9.75486 5.50131 9.71217 5.63635C9.66948 5.77138 9.59622 5.89478 9.49809 5.99697C9.41805 6.10667 9.31699 6.19938 9.20078 6.26974C9.08456 6.34009 8.95551 6.38667 8.82112 6.40679C8.60866 6.42156 8.39612 6.3791 8.20569 6.28384C8.02529 6.1926 7.85938 6.07522 7.71335 5.9355C7.65197 5.882 7.58023 5.84166 7.5026 5.81699C7.42497 5.79231 7.34309 5.78383 7.26204 5.79206C7.13895 5.79206 7.01587 5.9355 6.89278 6.18139C6.732 6.60548 6.61514 7.04491 6.54404 7.4928C6.33779 8.35404 6.20737 9.23166 6.15427 10.1156C6.14589 10.7481 6.08413 11.3787 5.96964 12.0008C5.91709 12.4368 5.70524 12.8381 5.37473 13.1278C4.92091 13.4281 4.37838 13.5653 3.83616 13.5171C4.58483 13.5024 5.33152 13.5991 6.0517 13.804C6.60381 13.977 7.09492 14.304 7.46718 14.7465C7.85681 15.2243 8.11175 15.7973 8.20569 16.4063C8.35124 17.0797 8.42686 17.7664 8.43135 18.4554C8.43135 19.3979 8.43135 20.2176 8.43135 20.9347C8.39331 21.5284 8.39331 22.1238 8.43135 22.7174C8.48108 23.1003 8.6066 23.4695 8.8006 23.8035C8.89902 23.93 9.02748 24.0299 9.17435 24.0943C9.32121 24.1588 9.48184 24.1855 9.64169 24.1723V24.6026C8.93579 24.621 8.23476 24.481 7.59027 24.1928C7.10355 23.9248 6.71539 23.5083 6.4825 23.0043C6.26325 22.3858 6.15222 21.7343 6.15427 21.0782C6.15427 20.3405 6.15427 19.4799 6.15427 18.4554C6.1882 17.5637 6.08441 16.6721 5.84656 15.8121C5.69278 15.3095 5.41809 14.8522 5.0465 14.4802C4.77221 14.2327 4.4285 14.0754 4.06182 14.0294H3.15919V24.2747H3.69256V24.6026H0V24.2542H0.717998V4.62409H0V4.27574H3.69256V4.62409H3.07713V13.2712C3.67114 13.3174 4.26782 13.2263 4.82084 13.0048C4.99248 12.9001 5.13981 12.76 5.253 12.594C5.3662 12.4279 5.44266 12.2396 5.4773 12.0417C5.60291 11.4555 5.6716 10.8585 5.68244 10.2591C5.7642 9.29869 5.92197 8.34631 6.15427 7.41083Z" fill="white"/>
<path d="M19.3036 24.2139C19.5805 24.2194 19.85 24.1248 20.0626 23.9475C20.2981 23.7281 20.4865 23.4632 20.6165 23.1689C20.7601 22.841 20.9037 22.4517 21.0473 22.0214C21.1909 21.5911 21.3345 21.0993 21.4781 20.587L16.9855 4.62471H16.4111V4.27637H19.9601V4.62471H19.3036L22.5654 16.4069L25.4373 4.58373H24.8835V4.27637H26.381V4.62471H25.8681L21.7653 21.0173C21.5807 21.5911 21.4166 22.1034 21.2525 22.5541C21.1121 22.9398 20.9334 23.3105 20.7191 23.6607C20.5726 23.9426 20.3473 24.176 20.0705 24.3324C19.7937 24.4888 19.4774 24.5616 19.16 24.5418C18.7448 24.5543 18.3339 24.4553 17.9702 24.2549C17.6895 24.0744 17.4571 23.8282 17.2932 23.5377C17.1472 23.2742 17.0697 22.9783 17.0676 22.6771C17.0452 22.416 17.0949 22.1538 17.2112 21.9189C17.2558 21.8162 17.3205 21.7234 17.4015 21.6459C17.4825 21.5685 17.5782 21.5081 17.683 21.4681C17.8089 21.4347 17.9408 21.4302 18.0688 21.4551C18.1967 21.4799 18.3173 21.5334 18.4215 21.6116C18.7497 21.8165 18.9344 22.0009 18.9754 22.2058C19.0162 22.296 19.0373 22.3938 19.0373 22.4927C19.0373 22.5916 19.0162 22.6894 18.9754 22.7795C18.8975 22.9624 18.7862 23.1292 18.6472 23.2713C18.5397 23.4066 18.4436 23.5505 18.36 23.7016C18.321 23.7434 18.2994 23.7983 18.2994 23.8553C18.2994 23.9124 18.321 23.9673 18.36 24.009C18.6438 24.1781 18.9751 24.25 19.3036 24.2139Z" fill="white"/>
<path d="M36.0625 4.27637C37.0061 4.27637 37.7856 4.27637 38.4216 4.27637C39.0011 4.31831 39.5467 4.56533 39.9602 4.97305C40.412 5.50799 40.6972 6.1633 40.7807 6.85821C40.9746 8.10519 41.057 9.36694 41.0269 10.6285C41.0269 12.3907 41.0269 13.7636 41.0269 14.7267C41.0139 15.468 40.8535 16.1993 40.5551 16.8782C40.4422 17.1018 40.2769 17.295 40.0734 17.4412C39.8698 17.5875 39.6339 17.6825 39.3858 17.7183C38.6598 17.8308 37.9252 17.8788 37.1907 17.8618C37.0538 17.8487 36.9156 17.8679 36.7874 17.9177C36.6592 17.9675 36.5444 18.0466 36.4522 18.1486C36.279 18.4082 36.1994 18.7189 36.2266 19.0297V24.2549H36.801V24.6032H33.1084V24.2549H33.8469V4.62471H33.1084V4.27637H36.0625ZM36.0625 4.62471V18.0462C36.063 17.9645 36.084 17.8843 36.1234 17.8128C36.1628 17.7412 36.2194 17.6806 36.2881 17.6364C36.5435 17.4916 36.8366 17.4273 37.1292 17.4519C37.4317 17.463 37.733 17.407 38.0113 17.288C38.1513 17.1828 38.2689 17.0506 38.3569 16.8993C38.445 16.7479 38.5019 16.5805 38.5242 16.4069C38.657 15.7319 38.7257 15.0458 38.7293 14.3578C38.7293 13.4562 38.7293 12.3088 38.7293 10.608C38.756 9.416 38.6874 8.22375 38.5242 7.04262C38.4651 6.42297 38.2764 5.82262 37.9703 5.28042C37.8794 5.11795 37.7528 4.9782 37.6 4.87172C37.4472 4.76523 37.2722 4.69479 37.0882 4.66569C36.7474 4.63206 36.4049 4.61838 36.0625 4.62471Z" fill="white"/>
<path d="M48.7202 20.2383C48.7202 17.9229 48.7202 16.0172 48.7202 14.5214C48.7202 13.0256 48.7202 11.8576 48.7202 10.9765V8.64054C48.7202 8.17608 48.7202 7.6843 48.7202 7.1652C48.7806 6.66093 48.9561 6.17723 49.2331 5.75134C49.4846 5.29646 49.8718 4.93118 50.3408 4.70631C51.0183 4.3837 51.7659 4.23576 52.5153 4.276C53.265 4.24024 54.0136 4.36603 54.7103 4.64484C55.1731 4.83795 55.5665 5.16658 55.8386 5.58741C56.0936 6.00865 56.235 6.48872 56.2489 6.98079C56.2807 7.53358 56.2807 8.08774 56.2489 8.64054C56.2489 10.0954 56.2489 11.3863 56.2489 12.5133V15.4025C56.2489 16.2426 56.2489 16.9188 56.2489 17.4516C56.2489 17.9843 56.2489 18.4556 56.2489 18.804C56.2489 19.6441 56.2489 20.1154 56.2489 20.1973C56.2489 20.935 56.2489 21.5702 56.2489 22.1235C56.2317 22.6022 56.0903 23.0682 55.8386 23.4759C55.5473 23.8541 55.1461 24.1333 54.6898 24.275C53.9648 24.4901 53.2097 24.5869 52.4538 24.5619C51.718 24.5876 50.9831 24.4906 50.2793 24.275C49.8264 24.1376 49.4351 23.848 49.1715 23.4554C48.9199 23.0477 48.7785 22.5817 48.7612 22.103C48.7339 21.5975 48.7202 20.976 48.7202 20.2383ZM50.9563 20.2383C50.9563 20.894 50.9563 21.4473 50.9563 21.9391C50.9696 22.3601 51.0246 22.7788 51.1204 23.189C51.1862 23.4845 51.3358 23.7547 51.5512 23.9676C51.8058 24.1721 52.1277 24.2744 52.4538 24.2545C52.606 24.2649 52.7588 24.2449 52.9032 24.1956C53.0476 24.1464 53.1808 24.0689 53.2949 23.9676C53.5239 23.7622 53.6819 23.4897 53.7462 23.189C53.862 22.7827 53.9173 22.3615 53.9103 21.9391C53.9103 21.4473 53.9103 20.894 53.9103 20.2383V18.1892C53.9103 17.3696 53.9103 16.1402 53.9103 14.6853C53.9103 13.2305 53.9103 11.1199 53.9103 8.53809C53.9103 8.03265 53.9103 7.54087 53.9103 7.06275C53.9027 6.63452 53.8477 6.20844 53.7462 5.79232C53.6774 5.49012 53.5367 5.20895 53.3359 4.97269C53.2333 4.85784 53.1065 4.76705 52.9646 4.70684C52.8228 4.64662 52.6693 4.61845 52.5153 4.62435C52.3446 4.61217 52.1735 4.64118 52.0164 4.70894C51.8593 4.7767 51.7209 4.88122 51.6127 5.01367C51.4048 5.30948 51.2583 5.64392 51.1819 5.99723C51.0931 6.42944 51.0383 6.8679 51.0178 7.30864C51.0178 7.77993 51.0178 8.23072 51.0178 8.64054V11.4273C51.0178 12.3699 51.0178 13.4764 51.0178 15.0337C51.0178 16.591 50.9357 18.2302 50.9563 20.2383Z" fill="white"/>
<path d="M67.205 4.27637C68.1282 4.27637 68.9282 4.27637 69.5641 4.27637C70.1437 4.31831 70.6892 4.56533 71.1027 4.97305C71.5545 5.50799 71.8398 6.1633 71.9233 6.85821C72.0939 8.0731 72.1693 9.29944 72.1489 10.5261C72.1489 12.2883 72.1489 13.6611 72.0463 14.6242C72.0334 15.3655 71.873 16.0969 71.5745 16.7757C71.4544 16.9978 71.2845 17.1892 71.0781 17.3349C70.8717 17.4807 70.6344 17.5768 70.3847 17.6159C69.6588 17.729 68.9242 17.777 68.1897 17.7593C68.0527 17.7463 67.9146 17.7654 67.7864 17.8152C67.6582 17.8651 67.5434 17.9441 67.4512 18.0462C67.2875 18.3099 67.2087 18.6174 67.2255 18.9273V24.1524H67.8205V24.6032H64.1279V24.2549H64.8459V4.62471H64.1279V4.27637H67.205ZM67.205 4.62471V18.0462C67.2058 17.9621 67.229 17.8798 67.2723 17.8078C67.3155 17.7357 67.3773 17.6765 67.4512 17.6364C67.7045 17.4865 67.9994 17.4218 68.2923 17.4519C68.5879 17.46 68.8819 17.4041 69.1539 17.288C69.3127 17.195 69.4486 17.0675 69.5516 16.915C69.6545 16.7625 69.7219 16.5889 69.7488 16.4069C69.8712 15.7304 69.9398 15.0452 69.9539 14.3578C69.9539 13.4562 69.9539 12.3088 69.9539 10.608C69.9795 9.42282 69.9109 8.23747 69.7488 7.06311C69.6749 6.44376 69.4797 5.84498 69.1744 5.30091C69.0856 5.14086 68.9622 5.00262 68.8131 4.89628C68.6641 4.78993 68.4931 4.71815 68.3128 4.68618C67.9451 4.64307 67.5752 4.62254 67.205 4.62471Z" fill="white"/>
<path d="M87.698 4.27637V5.69023H87.3288V4.62471H84.4363V24.2549H85.0106V24.6032H81.3181V24.2549H82.0566V4.62471H79.3487V5.69023H78.9795V4.27637H87.698Z" fill="white"/>
<path d="M101.647 14.9521H99.5953H99.1029C98.9011 14.9733 98.7018 15.0145 98.508 15.075C98.3313 15.1473 98.1656 15.2438 98.0157 15.3619C97.951 15.4179 97.8993 15.4871 97.8639 15.5649C97.8285 15.6427 97.8103 15.7272 97.8105 15.8127V24.2139H98.4054V24.6032H94.7129V24.2549H95.4309V4.62471H94.7129V4.27637H98.4054V4.62471H97.79V15.075C97.79 15.075 97.79 14.9316 97.9746 14.8701L98.467 14.7062H99.0824C99.2939 14.6865 99.5068 14.6865 99.7184 14.7062H101.77V4.62471H100.929V4.27637H104.621V4.62471H104.006V24.2549H104.621V24.6032H100.929V24.2549H101.647V14.9521Z" fill="white"/>
<path d="M112.295 24.6032V24.2549H113.013V4.62471H112.295V4.27637H115.987V4.62471H115.393V9.84986C115.376 10.1597 115.455 10.4672 115.618 10.731C115.71 10.833 115.825 10.9121 115.953 10.9619C116.082 11.0117 116.22 11.0309 116.357 11.0178C117.091 11.0001 117.826 11.0481 118.552 11.1613C118.801 11.2003 119.039 11.2965 119.245 11.4422C119.452 11.5879 119.621 11.7793 119.742 12.0014C120.04 12.6802 120.2 13.4116 120.213 14.1529C120.213 15.116 120.213 16.4889 120.213 18.2511C120.234 19.4777 120.158 20.704 119.988 21.9189C119.904 22.6138 119.619 23.2691 119.167 23.8041C118.754 24.2118 118.208 24.4588 117.629 24.5008C116.993 24.5008 116.193 24.6032 115.269 24.6032H112.295ZM115.372 24.2549C115.727 24.2758 116.084 24.2758 116.439 24.2549C116.619 24.2229 116.79 24.1511 116.939 24.0448C117.088 23.9384 117.212 23.8002 117.3 23.6402C117.602 23.0946 117.797 22.4965 117.875 21.8779C118.038 20.6968 118.107 19.5046 118.08 18.3126C118.08 16.7143 118.08 15.4643 118.08 14.5627C118.067 13.8753 117.998 13.19 117.875 12.5137C117.857 12.3439 117.804 12.1798 117.719 12.0316C117.635 11.8834 117.52 11.7545 117.382 11.653C117.115 11.5242 116.817 11.4677 116.521 11.4891C116.228 11.5192 115.933 11.4546 115.68 11.3047C115.607 11.2629 115.547 11.2034 115.503 11.1317C115.46 11.06 115.436 10.9785 115.434 10.8949L115.372 24.2549ZM121.034 4.62471V4.27637H124.727V4.62471H124.111V24.2549H124.686V24.6032H121.034V24.2549H121.773V4.62471H121.034Z" fill="white"/>
<path d="M139.067 8.92847C138.82 9.64565 138.595 10.3014 138.41 10.9775C138.226 11.6537 138.02 12.248 137.774 13.0266L137.036 15.1986C136.42 17.0223 135.743 19.1124 134.984 21.3459V24.1736H135.559V24.6039H131.866V24.2556H132.584V4.6254H131.866V4.27706H135.559V4.6254H134.943V20.3009C135.189 19.5837 135.415 18.928 135.6 18.2518C135.784 17.5756 136.01 17.0018 136.256 16.2027C136.502 15.4036 136.749 14.6864 136.995 13.8872C137.59 12.0431 138.267 9.9735 139.046 7.74V4.6254H138.308V4.27706H142V4.6254H141.405V24.2556H141.98V24.6039H138.287V24.2556H139.026L139.067 8.92847ZM137.015 2.61731C137.407 2.61242 137.795 2.54319 138.164 2.4124C138.369 2.4124 138.451 2.20749 138.451 2.10504C138.421 1.95865 138.35 1.82376 138.246 1.71571C138.13 1.56772 138.027 1.41004 137.938 1.24443C137.837 1.09385 137.794 0.912119 137.815 0.732156C137.815 0.568229 137.979 0.383812 138.308 0.178905C138.402 0.104866 138.512 0.0519259 138.628 0.0236494C138.745 -0.00462719 138.867 -0.00758391 138.985 0.0149783C139.17 0.100356 139.321 0.244447 139.415 0.424794C139.514 0.657358 139.543 0.913851 139.497 1.16246C139.475 1.4468 139.368 1.7179 139.19 1.94111C138.987 2.21784 138.709 2.43108 138.39 2.55584C137.953 2.75429 137.474 2.84562 136.995 2.82222C136.334 2.882 135.675 2.69186 135.148 2.28946C134.806 2.00404 134.58 1.60313 134.513 1.16246C134.493 0.990803 134.512 0.816878 134.569 0.653666C134.626 0.490455 134.719 0.342173 134.841 0.219886C135.087 -0.0464941 135.395 -0.0464941 135.784 0.219886C136.174 0.486266 136.236 0.609211 136.256 0.773137C136.291 0.854154 136.308 0.941263 136.308 1.02927C136.308 1.11728 136.291 1.20439 136.256 1.28541C136.153 1.45201 136.037 1.60966 135.907 1.75669C135.796 1.859 135.724 1.99652 135.702 2.14602C135.702 2.24847 135.805 2.37142 135.99 2.45338C136.328 2.56122 136.681 2.61651 137.036 2.61731H137.015Z" fill="white"/>
<path d="M14.9553 33.5176H15.4066V35.0121L17.0272 33.5176H17.5606L15.9605 35.0326L17.6837 36.8956H17.1093L15.6528 35.2783L15.4066 35.483V36.8956H14.9553V35.483L14.7091 35.2783L13.2731 36.8956H12.6987L14.3604 35.0326L12.7808 33.5176H13.3142L14.9143 35.0121L14.9553 33.5176Z" fill="white"/>
<path d="M23.653 33.5176V36.0153L26.1352 33.5176V36.8956H25.7044V34.4184L23.2632 36.8956V33.5176H23.653Z" fill="white"/>
<path d="M35.0992 36.8956H34.6479L33.5196 34.4389L32.3913 36.8956H31.9194L33.4785 33.5176L35.0992 36.8956Z" fill="white"/>
<path d="M42.4649 33.4358C42.7099 33.4261 42.9539 33.4728 43.178 33.5722C43.4021 33.6716 43.6003 33.8211 43.7573 34.0091C43.9132 34.1685 44.0353 34.3576 44.1164 34.5651C44.1974 34.7726 44.2358 34.9943 44.2291 35.217C44.2302 35.6806 44.0541 36.1272 43.7368 36.4658C43.5707 36.6342 43.3727 36.7679 43.1544 36.8592C42.936 36.9505 42.7016 36.9975 42.4649 36.9975C42.2282 36.9975 41.9938 36.9505 41.7755 36.8592C41.5571 36.7679 41.3591 36.6342 41.193 36.4658C40.8757 36.1272 40.6996 35.6806 40.7007 35.217C40.6983 34.7691 40.867 34.3372 41.1725 34.0091C41.3324 33.8245 41.5312 33.6775 41.7546 33.5784C41.978 33.4793 42.2205 33.4306 42.4649 33.4358ZM42.4649 33.8658C42.292 33.8597 42.1197 33.8913 41.9603 33.9585C41.8009 34.0257 41.658 34.1268 41.5418 34.2547C41.414 34.384 41.3136 34.5376 41.2466 34.7065C41.1797 34.8753 41.1475 35.0559 41.152 35.2375C41.1527 35.4724 41.209 35.7039 41.3161 35.9131C41.4367 36.1152 41.6059 36.2841 41.8085 36.4044C42.0072 36.5202 42.2349 36.577 42.4649 36.5682C42.7014 36.5775 42.9359 36.5208 43.1419 36.4044C43.3335 36.2774 43.4947 36.1096 43.6137 35.9131C43.7365 35.7092 43.8004 35.4753 43.7983 35.2375C43.7965 34.8727 43.6574 34.5219 43.4085 34.2547C43.2867 34.1284 43.14 34.0286 42.9776 33.9616C42.8151 33.8947 42.6406 33.862 42.4649 33.8658Z" fill="white"/>
<path d="M50.5675 33.5171V36.0164L53.0497 33.5171V36.8972H52.6189V34.4185L50.1777 36.8972V33.5171H50.5675ZM50.5675 32.165H50.9778C51.0536 32.2677 51.1518 32.3518 51.265 32.4109C51.4067 32.444 51.5541 32.444 51.6958 32.4109C51.8234 32.4457 51.958 32.4457 52.0856 32.4109C52.204 32.3599 52.3042 32.2742 52.3728 32.165H52.783C52.7256 32.358 52.6022 32.5247 52.4343 32.6362C52.2032 32.7665 51.9405 32.8303 51.6753 32.8206C51.4163 32.8333 51.1593 32.7692 50.9368 32.6362C50.7404 32.5369 50.5872 32.3693 50.506 32.165H50.5675Z" fill="white"/>
<path d="M66.0132 33.5176H66.4441V34.9507L68.0242 33.5176H68.6194L66.9161 35.0735L68.763 36.8956H68.1474L66.5878 35.3397L66.4441 35.4625V36.8956H66.0132V33.5176Z" fill="white"/>
<path d="M75.9015 33.4355C76.1493 33.4272 76.3958 33.4744 76.623 33.5736C76.8502 33.6728 77.0523 33.8215 77.2144 34.0087C77.5142 34.3389 77.6757 34.7712 77.6657 35.2167C77.6668 35.6803 77.4907 36.1269 77.1733 36.4655C77.0119 36.64 76.8148 36.7778 76.5953 36.8696C76.3759 36.9614 76.1393 37.0052 75.9015 36.9978C75.6638 37.0038 75.4276 36.9595 75.2083 36.8677C74.9891 36.776 74.7919 36.6389 74.6296 36.4655C74.3122 36.1269 74.1362 35.6803 74.1372 35.2167C74.1348 34.7688 74.3036 34.3368 74.6091 34.0087C74.769 33.8242 74.9677 33.6771 75.1911 33.578C75.4145 33.479 75.657 33.4303 75.9015 33.4355ZM75.9015 33.8654C75.7289 33.862 75.5575 33.8949 75.3984 33.9619C75.2394 34.0289 75.0962 34.1286 74.9783 34.2544C74.8505 34.3837 74.7501 34.5373 74.6832 34.7062C74.6162 34.875 74.584 35.0556 74.5885 35.2371C74.5893 35.4721 74.6455 35.7036 74.7527 35.9128C74.8732 36.1149 75.0425 36.2838 75.245 36.4041C75.4446 36.5178 75.6717 36.5745 75.9015 36.5679C76.138 36.5772 76.3724 36.5205 76.5784 36.4041C76.7751 36.2832 76.9376 36.114 77.0503 35.9128C77.1731 35.7088 77.237 35.475 77.2349 35.2371C77.2331 34.8724 77.094 34.5216 76.8451 34.2544C76.7233 34.128 76.5765 34.0282 76.4141 33.9613C76.2517 33.8943 76.0771 33.8617 75.9015 33.8654Z" fill="white"/>
<path d="M87.2463 33.5176H87.3694L88.5182 36.8956H88.0669L87.2258 34.4184L85.9334 36.8956L84.6205 34.4184L83.6974 36.8956H83.2461L84.4154 33.5176H84.518L85.8924 36.1586L87.2463 33.5176Z" fill="white"/>
<path d="M94.3657 33.5176H97.2182V36.8956H96.7873V33.927H94.7351V36.8956H94.3657V33.5176Z" fill="white"/>
<path d="M106.037 36.8956H105.586L104.437 34.4389L103.329 36.8956H102.857L104.396 33.5176L106.037 36.8956Z" fill="white"/>
<path d="M114.654 35.7896L115.023 35.9739C114.919 36.1915 114.772 36.3864 114.592 36.5471C114.438 36.6912 114.257 36.8026 114.059 36.8747C113.851 36.9607 113.627 37.0025 113.402 36.9975C113.159 37.0112 112.915 36.9685 112.691 36.8726C112.467 36.7767 112.268 36.6302 112.11 36.4447C111.798 36.1127 111.628 35.6717 111.638 35.2164C111.632 34.8008 111.769 34.3957 112.028 34.0699C112.188 33.8658 112.394 33.7021 112.629 33.5919C112.864 33.4817 113.122 33.428 113.382 33.4352C113.646 33.4288 113.909 33.4848 114.148 33.5986C114.386 33.7125 114.595 33.8809 114.756 34.0903C115.012 34.4244 115.143 34.8372 115.126 35.2573H112.089C112.08 35.6141 112.213 35.9601 112.459 36.2195C112.576 36.3391 112.717 36.4335 112.872 36.4968C113.027 36.5602 113.194 36.5912 113.361 36.5881C113.531 36.6175 113.704 36.6175 113.874 36.5881C114.022 36.5261 114.16 36.4434 114.284 36.3424C114.423 36.1692 114.547 35.9843 114.654 35.7896ZM114.654 34.8683C114.607 34.6666 114.516 34.4777 114.387 34.3156C114.276 34.1691 114.127 34.0558 113.956 33.988C113.781 33.89 113.583 33.8406 113.382 33.8447C113.065 33.8481 112.759 33.9643 112.52 34.1722C112.33 34.3654 112.196 34.6057 112.13 34.8683H114.654Z" fill="white"/>
<path d="M121.034 33.5176H121.465V34.9507L123.045 33.5176H123.64L121.937 35.0735L123.784 36.8956H123.086L121.526 35.3397L121.383 35.4625V36.8956H121.034V33.5176Z" fill="white"/>
<path d="M132.624 34.2341L132.275 34.4388C132.132 34.2495 131.945 34.0969 131.731 33.9936C131.517 33.8904 131.282 33.8395 131.044 33.8451C130.854 33.8413 130.666 33.8755 130.49 33.9459C130.313 34.0162 130.153 34.1212 130.018 34.2546C129.885 34.3767 129.78 34.5257 129.709 34.6916C129.639 34.8575 129.604 35.0366 129.608 35.2168C129.608 35.4609 129.672 35.7007 129.793 35.9129C129.929 36.1203 130.114 36.2906 130.333 36.4085C130.551 36.5264 130.796 36.5883 131.044 36.5885C131.281 36.5925 131.516 36.5409 131.73 36.4378C131.944 36.3347 132.131 36.1829 132.275 35.9948L132.624 36.22C132.456 36.4623 132.23 36.6593 131.967 36.7933C131.67 36.9257 131.349 36.9954 131.024 36.998C130.53 37.0041 130.053 36.8209 129.69 36.4862C129.523 36.3247 129.391 36.1304 129.302 35.9154C129.214 35.7005 129.172 35.4696 129.177 35.2373C129.173 34.92 129.259 34.6079 129.423 34.3365C129.578 34.0552 129.814 33.8269 130.1 33.6813C130.395 33.5167 130.727 33.432 131.065 33.4357C131.287 33.4398 131.508 33.4742 131.721 33.538C131.906 33.5973 132.079 33.6873 132.234 33.8042C132.394 33.9166 132.528 34.0636 132.624 34.2341Z" fill="white"/>
</svg>
