<svg width="142" height="38" viewBox="0 0 142 38" fill="none" xmlns="http://www.w3.org/2000/svg">
<path d="M6.15427 7.45917C6.24653 6.78368 6.46208 6.13083 6.79021 5.53304C7.00823 5.13796 7.31772 4.80072 7.69284 4.54948C7.97168 4.36727 8.30529 4.28758 8.63649 4.32408C8.90804 4.34989 9.16545 4.45702 9.375 4.63145C9.57727 4.78614 9.71002 5.01451 9.74426 5.26666C9.76584 5.40662 9.75486 5.54965 9.71217 5.68469C9.66948 5.81972 9.59622 5.94312 9.49809 6.04531C9.41805 6.15501 9.31699 6.24772 9.20078 6.31808C9.08456 6.38843 8.95551 6.43501 8.82112 6.45512C8.60866 6.4699 8.39612 6.42744 8.20569 6.33218C8.02529 6.24094 7.85938 6.12356 7.71335 5.98384C7.65197 5.93034 7.58023 5.89 7.5026 5.86533C7.42497 5.84065 7.34309 5.83217 7.26204 5.8404C7.13895 5.8404 7.01587 5.98384 6.89278 6.22973C6.732 6.65382 6.61514 7.09325 6.54404 7.54114C6.33779 8.40238 6.20737 9.28 6.15427 10.164C6.14589 10.7964 6.08413 11.427 5.96964 12.0491C5.91709 12.4851 5.70524 12.8865 5.37473 13.1761C4.92091 13.4764 4.37838 13.6137 3.83616 13.5654C4.58483 13.5508 5.33152 13.6474 6.0517 13.8523C6.60381 14.0253 7.09492 14.3524 7.46718 14.7949C7.85681 15.2726 8.11175 15.8456 8.20569 16.4546C8.35124 17.1281 8.42686 17.8147 8.43135 18.5037C8.43135 19.4463 8.43135 20.2659 8.43135 20.9831C8.39331 21.5767 8.39331 22.1722 8.43135 22.7658C8.48108 23.1487 8.6066 23.5178 8.8006 23.8518C8.89902 23.9783 9.02748 24.0783 9.17435 24.1427C9.32121 24.2071 9.48184 24.2339 9.64169 24.2206V24.6509C8.93579 24.6694 8.23476 24.5293 7.59027 24.2411C7.10355 23.9731 6.71539 23.5567 6.4825 23.0527C6.26325 22.4342 6.15222 21.7826 6.15427 21.1265C6.15427 20.3889 6.15427 19.5282 6.15427 18.5037C6.1882 17.612 6.08441 16.7205 5.84656 15.8604C5.69278 15.3578 5.41809 14.9005 5.0465 14.5285C4.77221 14.2811 4.4285 14.1237 4.06182 14.0777H3.15919V24.3231H3.69256V24.6509H0V24.3026H0.717998V4.67243H0V4.32408H3.69256V4.67243H3.07713V13.3195C3.67114 13.3657 4.26782 13.2746 4.82084 13.0532C4.99248 12.9484 5.13981 12.8084 5.253 12.6423C5.3662 12.4762 5.44266 12.288 5.4773 12.0901C5.60291 11.5038 5.6716 10.9068 5.68244 10.3074C5.7642 9.34703 5.92197 8.39465 6.15427 7.45917Z" fill="#B26855"/>
<path d="M19.3037 24.2622C19.5806 24.2677 19.8502 24.1731 20.0628 23.9959C20.2982 23.7764 20.4867 23.5115 20.6166 23.2172C20.7602 22.8894 20.9038 22.5 21.0474 22.0697C21.191 21.6394 21.3346 21.1476 21.4782 20.6354L16.9856 4.67305H16.4113V4.32471H19.9602V4.67305H19.3037L22.5655 16.4553L25.4375 4.63207H24.8836V4.32471H26.3811V4.67305H25.8682L21.7654 21.0657C21.5808 21.6394 21.4167 22.1517 21.2526 22.6025C21.1122 22.9882 20.9335 23.3589 20.7192 23.709C20.5728 23.991 20.3474 24.2243 20.0706 24.3808C19.7939 24.5372 19.4775 24.6099 19.1601 24.5901C18.745 24.6027 18.334 24.5036 17.9703 24.3032C17.6896 24.1227 17.4572 23.8766 17.2934 23.586C17.1474 23.3225 17.0698 23.0266 17.0677 22.7254C17.0453 22.4644 17.095 22.2021 17.2113 21.9673C17.2559 21.8645 17.3206 21.7717 17.4016 21.6943C17.4827 21.6169 17.5784 21.5564 17.6831 21.5165C17.8091 21.483 17.941 21.4786 18.0689 21.5034C18.1968 21.5283 18.3174 21.5818 18.4216 21.6599C18.7499 21.8648 18.9345 22.0492 18.9755 22.2541C19.0163 22.3443 19.0374 22.4421 19.0374 22.541C19.0374 22.6399 19.0163 22.7377 18.9755 22.8279C18.8977 23.0108 18.7864 23.1775 18.6473 23.3197C18.5398 23.4549 18.4437 23.5988 18.3601 23.75C18.3212 23.7917 18.2995 23.8466 18.2995 23.9037C18.2995 23.9607 18.3212 24.0156 18.3601 24.0573C18.6439 24.2264 18.9752 24.2984 19.3037 24.2622Z" fill="#B26855"/>
<path d="M36.0626 4.32471C37.0063 4.32471 37.7858 4.32471 38.4218 4.32471C39.0013 4.36664 39.5468 4.61367 39.9603 5.02139C40.4122 5.55632 40.6974 6.21164 40.7809 6.90655C40.9748 8.15353 41.0572 9.41528 41.0271 10.6768C41.0271 12.4391 41.0271 13.8119 41.0271 14.775C41.0141 15.5163 40.8537 16.2477 40.5553 16.9265C40.4424 17.1502 40.2771 17.3433 40.0736 17.4896C39.87 17.6358 39.6341 17.7309 39.3859 17.7667C38.66 17.8792 37.9254 17.9272 37.1909 17.9101C37.0539 17.8971 36.9158 17.9162 36.7876 17.966C36.6594 18.0159 36.5446 18.0949 36.4524 18.197C36.2792 18.4565 36.1996 18.7673 36.2267 19.0781V24.3032H36.8011V24.6516H33.1086V24.3032H33.8471V4.67305H33.1086V4.32471H36.0626ZM36.0626 4.67305V18.0945C36.0632 18.0129 36.0842 17.9326 36.1236 17.8611C36.163 17.7895 36.2196 17.7289 36.2883 17.6847C36.5436 17.54 36.8368 17.4757 37.1294 17.5003C37.4319 17.5113 37.7332 17.4553 38.0115 17.3364C38.1515 17.2311 38.269 17.0989 38.3571 16.9476C38.4452 16.7963 38.5021 16.6289 38.5243 16.4552C38.6572 15.7802 38.7259 15.0941 38.7295 14.4062C38.7295 13.5046 38.7295 12.3571 38.7295 10.6564C38.7561 9.46433 38.6875 8.27209 38.5243 7.09096C38.4652 6.47131 38.2765 5.87096 37.9705 5.32876C37.8796 5.16629 37.753 5.02654 37.6002 4.92006C37.4474 4.81357 37.2724 4.74313 37.0883 4.71403C36.7475 4.6804 36.405 4.66672 36.0626 4.67305Z" fill="#B26855"/>
<path d="M48.7203 20.2867C48.7203 17.9712 48.7203 16.0656 48.7203 14.5697C48.7203 13.0739 48.7203 11.9059 48.7203 11.0248V8.68888C48.7203 8.22442 48.7203 7.73264 48.7203 7.21354C48.7807 6.70927 48.9561 6.22557 49.2331 5.79968C49.4847 5.3448 49.8719 4.97952 50.3409 4.75465C51.0184 4.43204 51.766 4.2841 52.5154 4.32434C53.2651 4.28858 54.0137 4.41437 54.7104 4.69318C55.1732 4.88629 55.5666 5.21492 55.8387 5.63575C56.0937 6.05699 56.235 6.53706 56.249 7.02913C56.2808 7.58192 56.2808 8.13608 56.249 8.68888C56.249 10.1437 56.249 11.4346 56.249 12.5616V15.4508C56.249 16.291 56.249 16.9672 56.249 17.4999C56.249 18.0327 56.249 18.504 56.249 18.8523C56.249 19.6924 56.249 20.1637 56.249 20.2457C56.249 20.9834 56.249 21.6186 56.249 22.1718C56.2317 22.6505 56.0904 23.1165 55.8387 23.5242C55.5474 23.9025 55.1461 24.1816 54.6899 24.3233C53.9648 24.5384 53.2098 24.6353 52.4538 24.6102C51.7181 24.6359 50.9832 24.539 50.2794 24.3233C49.8265 24.186 49.4351 23.8964 49.1716 23.5037C48.9199 23.096 48.7785 22.63 48.7613 22.1513C48.734 21.6459 48.7203 21.0243 48.7203 20.2867ZM50.9563 20.2867C50.9563 20.9424 50.9563 21.4956 50.9563 21.9874C50.9697 22.4084 51.0246 22.8271 51.1204 23.2373C51.1863 23.5328 51.3358 23.8031 51.5512 24.016C51.8059 24.2205 52.1277 24.3228 52.4538 24.3029C52.6061 24.3132 52.7589 24.2932 52.9033 24.244C53.0477 24.1947 53.1808 24.1172 53.2949 24.016C53.524 23.8106 53.682 23.538 53.7462 23.2373C53.8621 22.831 53.9174 22.4098 53.9104 21.9874C53.9104 21.4956 53.9104 20.9424 53.9104 20.2867V18.2376C53.9104 17.418 53.9104 16.1885 53.9104 14.7337C53.9104 13.2788 53.9104 11.1683 53.9104 8.58643C53.9104 8.08099 53.9104 7.58921 53.9104 7.11109C53.9028 6.68286 53.8477 6.25678 53.7462 5.84066C53.6775 5.53846 53.5367 5.25729 53.336 5.02103C53.2333 4.90618 53.1065 4.81539 52.9647 4.75518C52.8228 4.69496 52.6694 4.66679 52.5154 4.67269C52.3447 4.66051 52.1736 4.68952 52.0165 4.75728C51.8594 4.82504 51.7209 4.92956 51.6128 5.06201C51.4048 5.35782 51.2583 5.69226 51.182 6.04557C51.0932 6.47778 51.0383 6.91624 51.0179 7.35698C51.0179 7.82827 51.0179 8.27906 51.0179 8.68888V11.4756C51.0179 12.4182 51.0179 13.5247 51.0179 15.082C51.0179 16.6393 50.9358 18.2786 50.9563 20.2867Z" fill="#B26855"/>
<path d="M67.2051 4.32471C68.1282 4.32471 68.9283 4.32471 69.5642 4.32471C70.1437 4.36664 70.6893 4.61367 71.1028 5.02139C71.5546 5.55632 71.8398 6.21164 71.9233 6.90655C72.0939 8.12144 72.1694 9.34778 72.149 10.5744C72.149 12.3366 72.149 13.7095 72.0464 14.6726C72.0334 15.4139 71.873 16.1452 71.5746 16.8241C71.4544 17.0462 71.2845 17.2375 71.0781 17.3833C70.8717 17.529 70.6345 17.6251 70.3848 17.6642C69.6589 17.7774 68.9243 17.8254 68.1898 17.8076C68.0528 17.7946 67.9147 17.8138 67.7865 17.8636C67.6582 17.9134 67.5434 17.9925 67.4513 18.0945C67.2876 18.3582 67.2088 18.6658 67.2256 18.9756V24.2008H67.8205V24.6516H64.128V24.3032H64.846V4.67305H64.128V4.32471H67.2051ZM67.2051 4.67305V18.0945C67.2058 18.0105 67.229 17.9282 67.2723 17.8561C67.3156 17.7841 67.3774 17.7249 67.4513 17.6847C67.7046 17.5348 67.9994 17.4702 68.2923 17.5003C68.588 17.5083 68.8819 17.4524 69.1539 17.3364C69.3128 17.2433 69.4487 17.1158 69.5516 16.9633C69.6546 16.8108 69.722 16.6372 69.7488 16.4552C69.8713 15.7787 69.9399 15.0935 69.954 14.4062C69.954 13.5046 69.954 12.3571 69.954 10.6564C69.9795 9.47116 69.9109 8.28581 69.7488 7.11145C69.675 6.4921 69.4798 5.89332 69.1744 5.34925C69.0857 5.1892 68.9623 5.05096 68.8132 4.94462C68.6641 4.83827 68.4932 4.76649 68.3128 4.73452C67.9452 4.69141 67.5753 4.67088 67.2051 4.67305Z" fill="#B26855"/>
<path d="M87.6978 4.32471V5.73857H87.3285V4.67305H84.436V24.3032H85.0104V24.6516H81.3179V24.3032H82.0564V4.67305H79.3485V5.73857H78.9792V4.32471H87.6978Z" fill="#B26855"/>
<path d="M101.647 15.0004H99.5954H99.1031C98.9012 15.0217 98.7019 15.0629 98.5081 15.1233C98.3315 15.1956 98.1657 15.2922 98.0158 15.4102C97.9512 15.4662 97.8994 15.5355 97.864 15.6133C97.8286 15.6911 97.8104 15.7756 97.8107 15.861V24.2622H98.4056V24.6516H94.713V24.3032H95.431V4.67305H94.713V4.32471H98.4056V4.67305H97.7901V15.1233C97.7901 15.1233 97.7901 14.9799 97.9748 14.9184L98.4671 14.7545H99.0825C99.2941 14.7348 99.507 14.7348 99.7185 14.7545H101.77V4.67305H100.929V4.32471H104.621V4.67305H104.006V24.3032H104.621V24.6516H100.929V24.3032H101.647V15.0004Z" fill="#B26855"/>
<path d="M112.295 24.6516V24.3032H113.013V4.67305H112.295V4.32471H115.987V4.67305H115.392V9.8982C115.376 10.208 115.454 10.5156 115.618 10.7793C115.71 10.8813 115.825 10.9604 115.953 11.0102C116.082 11.06 116.22 11.0792 116.357 11.0662C117.091 11.0485 117.826 11.0965 118.552 11.2096C118.801 11.2487 119.039 11.3448 119.245 11.4905C119.451 11.6363 119.621 11.8276 119.741 12.0497C120.04 12.7286 120.2 13.4599 120.213 14.2013C120.213 15.1643 120.213 16.5372 120.213 18.2994C120.234 19.526 120.158 20.7524 119.988 21.9673C119.904 22.6622 119.619 23.3175 119.167 23.8524C118.754 24.2601 118.208 24.5072 117.629 24.5491C116.993 24.5491 116.193 24.6516 115.269 24.6516H112.295ZM115.372 24.3032C115.727 24.3242 116.083 24.3242 116.439 24.3032C116.619 24.2712 116.79 24.1995 116.939 24.0931C117.088 23.9868 117.212 23.8485 117.3 23.6885C117.602 23.143 117.797 22.5449 117.875 21.9263C118.038 20.7452 118.106 19.5529 118.08 18.3609C118.08 16.7626 118.08 15.5127 118.08 14.6111C118.067 13.9236 117.998 13.2384 117.875 12.562C117.857 12.3923 117.804 12.2281 117.719 12.0799C117.634 11.9318 117.52 11.8029 117.382 11.7014C117.114 11.5725 116.817 11.516 116.521 11.5375C116.228 11.5676 115.933 11.5029 115.68 11.353C115.607 11.3113 115.546 11.2517 115.503 11.18C115.46 11.1083 115.436 11.0268 115.433 10.9432L115.372 24.3032ZM121.034 4.67305V4.32471H124.726V4.67305H124.111V24.3032H124.685V24.6516H121.034V24.3032H121.772V4.67305H121.034Z" fill="#B26855"/>
<path d="M139.067 8.97681C138.82 9.69399 138.595 10.3497 138.41 11.0259C138.225 11.7021 138.02 12.2963 137.774 13.075L137.036 15.247C136.42 17.0707 135.743 19.1607 134.984 21.3942V24.222H135.559V24.6523H131.866V24.3039H132.584V4.67374H131.866V4.3254H135.559V4.67374H134.943V20.3492C135.189 19.632 135.415 18.9763 135.6 18.3001C135.784 17.6239 136.01 17.0502 136.256 16.251C136.502 15.4519 136.748 14.7347 136.995 13.9356C137.59 12.0914 138.266 10.0218 139.046 7.78834V4.67374H138.308V4.3254H142V4.67374H141.405V24.3039H141.98V24.6523H138.287V24.3039H139.026L139.067 8.97681ZM137.015 2.66565C137.407 2.66076 137.795 2.59153 138.164 2.46074C138.369 2.46074 138.451 2.25583 138.451 2.15338C138.421 2.00699 138.349 1.8721 138.246 1.76405C138.13 1.61606 138.027 1.45838 137.938 1.29277C137.837 1.14219 137.794 0.960458 137.815 0.780495C137.815 0.616569 137.979 0.432152 138.308 0.227244C138.402 0.153206 138.511 0.100266 138.628 0.0719892C138.745 0.0437127 138.866 0.0407559 138.984 0.0633181C139.169 0.148696 139.321 0.292787 139.415 0.473134C139.514 0.705698 139.543 0.962191 139.497 1.2108C139.475 1.49514 139.367 1.76624 139.19 1.98945C138.987 2.26618 138.709 2.47942 138.39 2.60418C137.952 2.80263 137.474 2.89396 136.995 2.87056C136.334 2.93034 135.675 2.7402 135.148 2.3378C134.806 2.05238 134.579 1.65147 134.512 1.2108C134.493 1.03914 134.512 0.865218 134.569 0.702006C134.625 0.538795 134.718 0.390512 134.841 0.268226C135.087 0.00184579 135.395 0.00184579 135.784 0.268226C136.174 0.534606 136.236 0.657551 136.256 0.821477C136.291 0.902494 136.308 0.989603 136.308 1.07761C136.308 1.16562 136.291 1.25273 136.256 1.33375C136.153 1.50035 136.037 1.658 135.907 1.80503C135.796 1.90734 135.724 2.04486 135.702 2.19436C135.702 2.29681 135.805 2.41976 135.989 2.50172C136.328 2.60956 136.681 2.66485 137.036 2.66565H137.015Z" fill="#B26855"/>
<path d="M14.9552 33.5659H15.4065V35.0604L17.0272 33.5659H17.5605L15.9604 35.0809L17.6836 36.944H17.1092L15.6527 35.3266L15.4065 35.5313V36.944H14.9552V35.5313L14.7091 35.3266L13.2731 36.944H12.6987L14.3603 35.0809L12.7807 33.5659H13.3141L14.9142 35.0604L14.9552 33.5659Z" fill="#B26855"/>
<path d="M23.6531 33.5659V36.0636L26.1353 33.5659V36.944H25.7046V34.4667L23.2634 36.944V33.5659H23.6531Z" fill="#B26855"/>
<path d="M35.0992 36.944H34.6479L33.5196 34.4872L32.3913 36.944H31.9195L33.4786 33.5659L35.0992 36.944Z" fill="#B26855"/>
<path d="M42.4648 33.4842C42.7099 33.4745 42.9539 33.5212 43.1779 33.6205C43.402 33.7199 43.6002 33.8694 43.7572 34.0574C43.9131 34.2168 44.0352 34.4059 44.1163 34.6134C44.1974 34.821 44.2357 35.0427 44.229 35.2653C44.2301 35.729 44.054 36.1756 43.7367 36.5142C43.5706 36.6825 43.3727 36.8163 43.1543 36.9075C42.9359 36.9988 42.7016 37.0458 42.4648 37.0458C42.2281 37.0458 41.9937 36.9988 41.7754 36.9075C41.557 36.8163 41.3591 36.6825 41.193 36.5142C40.8756 36.1756 40.6996 35.729 40.7006 35.2653C40.6983 34.8174 40.867 34.3855 41.1725 34.0574C41.3324 33.8729 41.5311 33.7258 41.7545 33.6267C41.9779 33.5276 42.2204 33.4789 42.4648 33.4842ZM42.4648 33.9141C42.2919 33.908 42.1197 33.9397 41.9603 34.0069C41.8008 34.0741 41.658 34.1751 41.5417 34.3031C41.4139 34.4323 41.3135 34.586 41.2466 34.7548C41.1796 34.9237 41.1474 35.1043 41.152 35.2858C41.1527 35.5207 41.2089 35.7522 41.3161 35.9614C41.4366 36.1635 41.6059 36.3324 41.8084 36.4528C42.0072 36.5685 42.2349 36.6253 42.4648 36.6165C42.7014 36.6259 42.9358 36.5692 43.1418 36.4528C43.3335 36.3257 43.4946 36.1579 43.6136 35.9614C43.7364 35.7575 43.8003 35.5237 43.7983 35.2858C43.7965 34.921 43.6574 34.5702 43.4085 34.3031C43.2867 34.1767 43.1399 34.0769 42.9775 34.0099C42.8151 33.943 42.6405 33.9104 42.4648 33.9141Z" fill="#B26855"/>
<path d="M50.5676 33.5654V36.0647L53.0498 33.5654V36.9456H52.619V34.4668L50.1778 36.9456V33.5654H50.5676ZM50.5676 32.2134H50.9778C51.0536 32.316 51.1519 32.4001 51.265 32.4592C51.4067 32.4924 51.5542 32.4924 51.6958 32.4592C51.8234 32.4941 51.958 32.4941 52.0856 32.4592C52.2041 32.4083 52.3043 32.3225 52.3728 32.2134H52.7831C52.7256 32.4063 52.6022 32.5731 52.4344 32.6846C52.2033 32.8149 51.9405 32.8787 51.6753 32.8689C51.4163 32.8816 51.1594 32.8175 50.9368 32.6846C50.7405 32.5852 50.5873 32.4176 50.506 32.2134H50.5676Z" fill="#B26855"/>
<path d="M66.0131 33.5659H66.444V34.999L68.0241 33.5659H68.6192L66.916 35.1219L68.7629 36.944H68.1472L66.5876 35.388L66.444 35.5109V36.944H66.0131V33.5659Z" fill="#B26855"/>
<path d="M75.9015 33.4838C76.1493 33.4756 76.3958 33.5228 76.623 33.622C76.8502 33.7211 77.0523 33.8698 77.2144 34.0571C77.5142 34.3872 77.6757 34.8196 77.6657 35.265C77.6668 35.7286 77.4907 36.1753 77.1733 36.5139C77.0119 36.6883 76.8148 36.8261 76.5953 36.9179C76.3759 37.0098 76.1393 37.0535 75.9015 37.0462C75.6638 37.0522 75.4276 37.0078 75.2083 36.9161C74.9891 36.8243 74.7919 36.6872 74.6296 36.5139C74.3122 36.1753 74.1362 35.7286 74.1372 35.265C74.1348 34.8171 74.3036 34.3852 74.6091 34.0571C74.769 33.8725 74.9677 33.7255 75.1911 33.6264C75.4145 33.5273 75.657 33.4786 75.9015 33.4838ZM75.9015 33.9138C75.7289 33.9104 75.5575 33.9433 75.3984 34.0103C75.2394 34.0773 75.0962 34.1769 74.9783 34.3028C74.8505 34.432 74.7501 34.5857 74.6832 34.7545C74.6162 34.9234 74.584 35.1039 74.5885 35.2855C74.5893 35.5204 74.6455 35.7519 74.7527 35.9611C74.8732 36.1632 75.0425 36.3321 75.245 36.4524C75.4446 36.5662 75.6717 36.6228 75.9015 36.6162C76.138 36.6256 76.3724 36.5688 76.5784 36.4524C76.7751 36.3315 76.9376 36.1624 77.0503 35.9611C77.1731 35.7572 77.237 35.5234 77.2349 35.2855C77.2331 34.9207 77.094 34.5699 76.8451 34.3028C76.7233 34.1764 76.5765 34.0766 76.4141 34.0096C76.2517 33.9427 76.0771 33.91 75.9015 33.9138Z" fill="#B26855"/>
<path d="M87.2466 33.5659H87.3696L88.5184 36.944H88.0671L87.226 34.4667L85.9337 36.944L84.6208 34.4667L83.6976 36.944H83.2463L84.4156 33.5659H84.5182L85.8926 36.2069L87.2466 33.5659Z" fill="#B26855"/>
<path d="M94.3655 33.5659H97.218V36.944H96.787V33.9754H94.7349V36.944H94.3655V33.5659Z" fill="#B26855"/>
<path d="M106.037 36.944H105.586L104.437 34.4872L103.329 36.944H102.858L104.396 33.5659L106.037 36.944Z" fill="#B26855"/>
<path d="M114.654 35.8379L115.023 36.0222C114.919 36.2399 114.772 36.4347 114.592 36.5955C114.438 36.7395 114.257 36.851 114.059 36.923C113.851 37.009 113.627 37.0508 113.402 37.0459C113.159 37.0596 112.915 37.0168 112.691 36.9209C112.467 36.825 112.268 36.6786 112.11 36.4931C111.798 36.161 111.628 35.72 111.638 35.2647C111.632 34.8491 111.769 34.4441 112.028 34.1182C112.188 33.9142 112.394 33.7505 112.629 33.6402C112.864 33.53 113.122 33.4763 113.382 33.4835C113.646 33.4771 113.909 33.5331 114.148 33.647C114.386 33.7608 114.595 33.9293 114.756 34.1387C115.012 34.4728 115.143 34.8856 115.126 35.3057H112.089C112.08 35.6625 112.213 36.0084 112.459 36.2679C112.576 36.3874 112.717 36.4818 112.872 36.5452C113.027 36.6085 113.194 36.6396 113.361 36.6364C113.531 36.6658 113.705 36.6658 113.874 36.6364C114.022 36.5744 114.16 36.4917 114.285 36.3907C114.423 36.2176 114.547 36.0326 114.654 35.8379ZM114.654 34.9167C114.607 34.7149 114.516 34.5261 114.387 34.3639C114.276 34.2174 114.127 34.1041 113.956 34.0363C113.781 33.9384 113.583 33.8889 113.382 33.893C113.065 33.8965 112.759 34.0126 112.52 34.2206C112.33 34.4137 112.196 34.6541 112.131 34.9167H114.654Z" fill="#B26855"/>
<path d="M121.034 33.5659H121.465V34.999L123.045 33.5659H123.64L121.937 35.1219L123.784 36.944H123.086L121.526 35.388L121.383 35.5109V36.944H121.034V33.5659Z" fill="#B26855"/>
<path d="M132.623 34.2825L132.275 34.4872C132.132 34.2978 131.945 34.1452 131.731 34.042C131.517 33.9387 131.282 33.8878 131.044 33.8935C130.854 33.8896 130.666 33.9239 130.489 33.9942C130.313 34.0646 130.153 34.1695 130.018 34.3029C129.885 34.425 129.78 34.574 129.709 34.7399C129.638 34.9058 129.604 35.0849 129.608 35.2652C129.608 35.5092 129.672 35.749 129.793 35.9613C129.929 36.1686 130.114 36.3389 130.333 36.4568C130.551 36.5748 130.796 36.6366 131.044 36.6369C131.281 36.6409 131.516 36.5892 131.73 36.4861C131.944 36.383 132.13 36.2313 132.275 36.0431L132.623 36.2683C132.456 36.5107 132.23 36.7076 131.967 36.8416C131.67 36.9741 131.349 37.0438 131.023 37.0463C130.53 37.0524 130.052 36.8692 129.69 36.5345C129.523 36.3731 129.39 36.1787 129.302 35.9638C129.214 35.7488 129.171 35.5179 129.177 35.2856C129.173 34.9683 129.259 34.6563 129.423 34.3848C129.578 34.1035 129.814 33.8752 130.1 33.7297C130.395 33.565 130.727 33.4803 131.064 33.484C131.287 33.4881 131.508 33.5226 131.721 33.5864C131.906 33.6456 132.079 33.7356 132.234 33.8525C132.394 33.965 132.527 34.1119 132.623 34.2825Z" fill="#B26855"/>
</svg>
